<mxfile host="Electron" agent="Mozilla/5.0 (Macintosh; Intel Mac OS X 10_15_7) AppleWebKit/537.36 (KHTML, like Gecko) draw.io/24.7.8 Chrome/128.0.6613.36 Electron/32.0.1 Safari/537.36" version="24.7.8">
  <diagram name="Page-1" id="-lMfoeV56hkhUjJX_32T">
    <mxGraphModel dx="1546" dy="838" grid="1" gridSize="10" guides="1" tooltips="1" connect="1" arrows="1" fold="1" page="1" pageScale="1" pageWidth="1920" pageHeight="1200" math="0" shadow="0">
      <root>
        <mxCell id="0" />
        <mxCell id="1" parent="0" />
        <mxCell id="gbn_iP07IwTiZ2sSqUB4-1" value="Scanning Tool&lt;div&gt;(Mock Data)&lt;/div&gt;" style="rounded=0;whiteSpace=wrap;html=1;" vertex="1" parent="1">
          <mxGeometry x="200" y="230" width="240" height="140" as="geometry" />
        </mxCell>
        <mxCell id="gbn_iP07IwTiZ2sSqUB4-2" value="AMQ Streams&lt;div&gt;(Kafka Topics)&lt;/div&gt;" style="rounded=0;whiteSpace=wrap;html=1;" vertex="1" parent="1">
          <mxGeometry x="510" y="230" width="240" height="140" as="geometry" />
        </mxCell>
        <mxCell id="gbn_iP07IwTiZ2sSqUB4-3" value="&lt;div&gt;Predictive Model&lt;/div&gt;&lt;div&gt;(Model Service)&lt;/div&gt;" style="rounded=0;whiteSpace=wrap;html=1;" vertex="1" parent="1">
          <mxGeometry x="830" y="230" width="240" height="140" as="geometry" />
        </mxCell>
        <mxCell id="gbn_iP07IwTiZ2sSqUB4-4" value="&lt;div&gt;Database&lt;/div&gt;&lt;div&gt;(Raw &amp;amp; Processed Traffic Data)&lt;/div&gt;" style="rounded=0;whiteSpace=wrap;html=1;" vertex="1" parent="1">
          <mxGeometry x="1150" y="230" width="240" height="140" as="geometry" />
        </mxCell>
        <mxCell id="gbn_iP07IwTiZ2sSqUB4-5" value="&lt;div&gt;Generative Model&lt;/div&gt;&lt;div&gt;/ Slack Integration&lt;/div&gt;" style="rounded=0;whiteSpace=wrap;html=1;" vertex="1" parent="1">
          <mxGeometry x="1150" y="460" width="240" height="140" as="geometry" />
        </mxCell>
        <mxCell id="gbn_iP07IwTiZ2sSqUB4-6" value="" style="endArrow=classic;html=1;rounded=0;exitX=1;exitY=0.5;exitDx=0;exitDy=0;" edge="1" parent="1" source="gbn_iP07IwTiZ2sSqUB4-1" target="gbn_iP07IwTiZ2sSqUB4-2">
          <mxGeometry width="50" height="50" relative="1" as="geometry">
            <mxPoint x="450" y="350" as="sourcePoint" />
            <mxPoint x="500" y="300" as="targetPoint" />
          </mxGeometry>
        </mxCell>
        <mxCell id="gbn_iP07IwTiZ2sSqUB4-7" value="" style="endArrow=classic;html=1;rounded=0;exitX=1;exitY=0.5;exitDx=0;exitDy=0;entryX=0;entryY=0.5;entryDx=0;entryDy=0;" edge="1" parent="1" target="gbn_iP07IwTiZ2sSqUB4-3">
          <mxGeometry width="50" height="50" relative="1" as="geometry">
            <mxPoint x="750" y="299.5" as="sourcePoint" />
            <mxPoint x="820" y="299.5" as="targetPoint" />
          </mxGeometry>
        </mxCell>
        <mxCell id="gbn_iP07IwTiZ2sSqUB4-8" value="" style="endArrow=classic;html=1;rounded=0;exitX=1;exitY=0.5;exitDx=0;exitDy=0;entryX=0;entryY=0.5;entryDx=0;entryDy=0;" edge="1" parent="1">
          <mxGeometry width="50" height="50" relative="1" as="geometry">
            <mxPoint x="1070" y="299.5" as="sourcePoint" />
            <mxPoint x="1150" y="300" as="targetPoint" />
          </mxGeometry>
        </mxCell>
        <mxCell id="gbn_iP07IwTiZ2sSqUB4-9" value="" style="endArrow=classic;html=1;rounded=0;exitX=0.5;exitY=1;exitDx=0;exitDy=0;entryX=0.5;entryY=0;entryDx=0;entryDy=0;" edge="1" parent="1" source="gbn_iP07IwTiZ2sSqUB4-4" target="gbn_iP07IwTiZ2sSqUB4-5">
          <mxGeometry width="50" height="50" relative="1" as="geometry">
            <mxPoint x="1230" y="400" as="sourcePoint" />
            <mxPoint x="1310" y="400.5" as="targetPoint" />
          </mxGeometry>
        </mxCell>
      </root>
    </mxGraphModel>
  </diagram>
</mxfile>
